<?xml version="1.0" encoding="UTF-8"?>
<svg version="1.1" xmlns="http://www.w3.org/2000/svg" width="377" height="133">
<path d="M0 0 C6.68937834 -0.07636198 13.37864333 -0.12873047 20.06835938 -0.16479492 C22.34183961 -0.17983716 24.61529104 -0.20027603 26.88867188 -0.22631836 C30.16543711 -0.26290221 33.44181706 -0.27977248 36.71875 -0.29296875 C37.72740112 -0.30845261 38.73605225 -0.32393646 39.77526855 -0.33988953 C48.85972295 -0.3420329 56.92579943 2.07572092 64 8 C67.56687744 12.24230742 70 15.36056837 70 21 C70.66 21 71.32 21 72 21 C72.07347656 19.60587891 72.07347656 19.60587891 72.1484375 18.18359375 C72.22320312 16.94738281 72.29796875 15.71117187 72.375 14.4375 C72.44460937 13.21933594 72.51421875 12.00117188 72.5859375 10.74609375 C73 7 73 7 75 0 C103.05 0 131.1 0 160 0 C156.31464874 4.91380168 152.67970795 9.67638754 148.6875 14.3125 C145.24788656 18.34096031 141.84217552 22.38978415 138.5 26.5 C135.19375876 30.56330542 131.83182118 34.57297989 128.4375 38.5625 C124.49019435 43.20417571 120.62790458 47.90078165 116.8515625 52.68359375 C114.60896329 55.48920837 112.29938736 58.24073517 110 61 C128.81 61.495 128.81 61.495 148 62 C147.23067615 69.6932385 146.17564669 77.35829648 145 85 C107.71 85 70.42 85 32 85 C29.03 78.73 26.06 72.46 23 66 C22.67 65.67 22.34 65.34 22 65 C21.79503906 66.27617188 21.59007812 67.55234375 21.37890625 68.8671875 C21.10694185 70.53648621 20.83479709 72.20575553 20.5625 73.875 C20.42779297 74.71675781 20.29308594 75.55851562 20.15429688 76.42578125 C20.02216797 77.23144531 19.89003906 78.03710938 19.75390625 78.8671875 C19.57323608 79.98262939 19.57323608 79.98262939 19.38891602 81.12060547 C19 83 19 83 18 85 C7.77 85 -2.46 85 -13 85 C-13 76.01008902 -13 76.01008902 -12.30078125 72.12890625 C-12.14601318 71.24154785 -11.99124512 70.35418945 -11.83178711 69.43994141 C-11.66042236 68.49038574 -11.48905762 67.54083008 -11.3125 66.5625 C-9.5519407 56.43468046 -7.95763277 46.29091494 -6.4375 36.125 C-3.67713306 17.7417248 -3.67713306 17.7417248 -2.25 9.0625 C-2.13454834 8.34787598 -2.01909668 7.63325195 -1.90014648 6.89697266 C-1.12125241 2.24250483 -1.12125241 2.24250483 0 0 Z M71 23 C70.34 27.62 69.68 32.24 69 37 C64.96229729 46.132899 60.22545313 51.51636458 52 57 C53.85054064 60.85691628 55.99343074 64.54423295 58.125 68.25 C58.68380859 69.22453125 58.68380859 69.22453125 59.25390625 70.21875 C60.16829121 71.81306224 61.08401256 73.4066079 62 75 C62.99 75 63.98 75 65 75 C67.00123858 73.02729373 67.00123858 73.02729373 69 70.375 C69.7940625 69.37210938 70.588125 68.36921875 71.40625 67.3359375 C72.27124253 66.22427661 73.13581346 65.11228757 74 64 C74.90552437 62.84578452 75.81178599 61.69214708 76.71875 60.5390625 C78.11602055 58.76188209 79.51244846 56.98408967 80.90551758 55.20361328 C84.49581805 50.61883413 88.16342466 46.10242192 91.86328125 41.60546875 C95.28249811 37.43614948 98.66299475 33.23542973 102 29 C102.56976563 28.28714844 103.13953125 27.57429688 103.7265625 26.83984375 C105.1897064 25.09884141 105.1897064 25.09884141 105 23 C93.78 23 82.56 23 71 23 Z M27 25 C26.34 30.28 25.68 35.56 25 41 C31.89661861 41.24689052 31.89661861 41.24689052 37 38 C39.1493009 35.26452613 38.99599352 33.92254147 38.8125 30.375 C38.34075097 26.73669952 38.34075097 26.73669952 35 25 C32.36 25 29.72 25 27 25 Z " fill="#FEFEFE" transform="translate(69,16)"/>
<path d="M0 0 C0.69771011 0.00359528 1.39542023 0.00719055 2.11427307 0.01089478 C3.2117688 0.01067574 3.2117688 0.01067574 4.33143616 0.01045227 C6.76094989 0.0111515 9.19038789 0.01894432 11.61988831 0.02676392 C13.29997719 0.02862806 14.98006662 0.03005198 16.66015625 0.03105164 C21.09071849 0.03487709 25.52124815 0.04470761 29.95179749 0.05575562 C34.46941182 0.06596914 38.98703139 0.07054913 43.50465393 0.07559204 C52.37511098 0.08632986 61.24554381 0.10340661 70.11598206 0.12442017 C70.61098206 1.11442017 70.61098206 1.11442017 71.11598206 2.12442017 C69.67042545 5.89987388 67.85716035 9.47219252 66.11598206 13.12442017 C71.39598206 13.45442017 76.67598206 13.78442017 82.11598206 14.12442017 C82.77598206 11.81442017 83.43598206 9.50442017 84.11598206 7.12442017 C84.34285706 6.38192017 84.56973206 5.63942017 84.80348206 4.87442017 C85.30232397 2.88665761 85.30232397 2.88665761 84.11598206 0.12442017 C88.73598206 0.12442017 93.35598206 0.12442017 98.11598206 0.12442017 C96.99098206 6.87442017 96.99098206 6.87442017 95.05348206 10.49942017 C94.51014221 11.53195923 94.51014221 11.53195923 93.95582581 12.58535767 C93.54010315 13.3471936 93.54010315 13.3471936 93.11598206 14.12442017 C95.75598206 14.12442017 98.39598206 14.12442017 101.11598206 14.12442017 C101.29773987 13.53274048 101.47949768 12.94106079 101.66676331 12.33145142 C101.91813049 11.5412561 102.16949768 10.75106079 102.42848206 9.93692017 C102.67211487 9.15961548 102.91574768 8.38231079 103.16676331 7.58145142 C105.12401454 2.51515089 105.12401454 2.51515089 107.11598206 0.12442017 C110.22111493 -0.39294819 112.7867579 -0.56974389 115.89845276 -0.53842163 C117.24527634 -0.55397346 117.24527634 -0.55397346 118.61930847 -0.56983948 C121.59392234 -0.59699056 124.5670697 -0.58722862 127.54176331 -0.57479858 C129.60818901 -0.58070527 131.67461129 -0.58795105 133.74102783 -0.59648132 C138.07639868 -0.60837739 142.41125671 -0.60163007 146.74659729 -0.58236694 C152.29880921 -0.55951708 157.84948703 -0.586209 163.40154743 -0.62742901 C167.67133971 -0.65302861 171.94076629 -0.65042052 176.21060753 -0.6395359 C178.25711138 -0.63804988 180.30364335 -0.64573156 182.35007668 -0.66278648 C185.21609947 -0.6827874 188.0794284 -0.66434412 190.94532776 -0.63607788 C191.78866165 -0.64979431 192.63199554 -0.66351074 193.50088501 -0.67764282 C198.0278474 -0.58857024 200.41384661 -0.07856693 203.68914795 3.17195129 C204.89043083 4.63342339 204.89043083 4.63342339 206.11598206 6.12442017 C206.58745667 5.14650513 207.05893127 4.16859009 207.54469299 3.16104126 C210.11598206 0.12442017 210.11598206 0.12442017 212.02626038 -0.41189575 C214.45582427 -0.57071221 216.82333336 -0.549721 219.25660706 -0.46151733 C220.13878906 -0.45302765 221.02097107 -0.44453796 221.92988586 -0.43579102 C224.74316881 -0.40224542 227.55356812 -0.32696757 230.36598206 -0.25057983 C232.27479478 -0.22048157 234.1836525 -0.19310551 236.09254456 -0.16854858 C240.76813209 -0.10245063 245.4415685 0.00107637 250.11598206 0.12442017 C250.11598206 4.12442017 250.11598206 4.12442017 248.61598206 5.87442017 C247.87348206 6.49317017 247.87348206 6.49317017 247.11598206 7.12442017 C247.44598206 7.78442017 247.77598206 8.44442017 248.11598206 9.12442017 C247.11988831 11.72598267 247.11988831 11.72598267 245.67848206 14.74942017 C244.96885315 16.2537561 244.96885315 16.2537561 244.24488831 17.78848267 C243.87234924 18.55934204 243.49981018 19.33020142 243.11598206 20.12442017 C237.22620149 20.27293083 231.33751434 20.3817134 225.44630432 20.45401001 C223.44318149 20.48415165 221.4401903 20.52507332 219.43751526 20.57705688 C216.55526755 20.64998898 213.67476651 20.68390191 210.79176331 20.71035767 C209.898871 20.74132538 209.0059787 20.77229309 208.08602905 20.80419922 C201.96524734 20.80749948 201.96524734 20.80749948 199.40562439 18.74874878 C198.01124573 17.08779907 198.01124573 17.08779907 196.11598206 14.12442017 C195.12598206 16.10442017 194.13598206 18.08442017 193.11598206 20.12442017 C175.62598206 20.12442017 158.13598206 20.12442017 140.11598206 20.12442017 C140.88058972 16.30138184 141.59212988 13.74048778 143.17848206 10.31192017 C143.54070862 9.52172485 143.90293518 8.73152954 144.27613831 7.91738892 C144.55328674 7.32570923 144.83043518 6.73402954 145.11598206 6.12442017 C141.76708054 5.67045796 139.22109871 5.72080646 136.11598206 7.12442017 C133.44654 11.21217184 131.74373585 15.53479279 130.11598206 20.12442017 C126.48598206 20.12442017 122.85598206 20.12442017 119.11598206 20.12442017 C119.88599433 16.2743588 120.44209626 14.11665443 122.17848206 10.81192017 C122.54070862 10.11453735 122.90293518 9.41715454 123.27613831 8.69863892 C123.55328674 8.17914673 123.83043518 7.65965454 124.11598206 7.12442017 C121.47598206 6.46442017 118.83598206 5.80442017 116.11598206 5.12442017 C115.69445862 6.1234436 115.27293518 7.12246704 114.83863831 8.15176392 C114.28537989 9.45520324 113.73198754 10.75858573 113.17848206 12.06192017 C112.90068909 12.72127563 112.62289612 13.3806311 112.33668518 14.05996704 C110.22926331 19.01113892 110.22926331 19.01113892 109.11598206 20.12442017 C107.5597781 20.2203014 105.99921752 20.24630049 104.44006348 20.24467468 C103.42899033 20.24604935 102.41791718 20.24742401 101.37620544 20.24884033 C99.69846542 20.24344742 99.69846542 20.24344742 97.98683167 20.23794556 C96.81625717 20.23809158 95.64568268 20.23823761 94.43963623 20.23838806 C91.22077263 20.23780912 88.00195202 20.23278008 84.78309703 20.2258141 C81.42250806 20.21957973 78.06191832 20.2189767 74.70132446 20.2177887 C68.33355864 20.21467563 61.9658099 20.20646257 55.59805161 20.19643921 C48.35028477 20.18527731 41.10251713 20.17976743 33.85474384 20.17474377 C18.94181371 20.16427993 4.02889959 20.14668096 -10.88401794 20.12442017 C-10.40932068 19.17897339 -9.93462341 18.23352661 -9.44554138 17.25942993 C-5.36835607 9.52857737 -5.36835607 9.52857737 -5.88401794 1.12442017 C-4.22236587 -0.53723191 -2.21885765 0.00482291 0 0 Z M26.11598206 4.12442017 C27.11598206 6.12442017 27.11598206 6.12442017 27.11598206 6.12442017 Z M57.11598206 4.12442017 C58.11598206 6.12442017 58.11598206 6.12442017 58.11598206 6.12442017 Z M218.11598206 4.12442017 C217.78598206 5.44442017 217.45598206 6.76442017 217.11598206 8.12442017 C217.77598206 7.79442017 218.43598206 7.46442017 219.11598206 7.12442017 C218.78598206 6.13442017 218.45598206 5.14442017 218.11598206 4.12442017 Z M6.11598206 6.12442017 C6.11598206 6.45442017 6.11598206 6.78442017 6.11598206 7.12442017 C12.71598206 7.45442017 19.31598206 7.78442017 26.11598206 8.12442017 C26.11598206 7.46442017 26.11598206 6.80442017 26.11598206 6.12442017 C19.51598206 6.12442017 12.91598206 6.12442017 6.11598206 6.12442017 Z M37.11598206 6.12442017 C35.63098206 10.08442017 35.63098206 10.08442017 34.11598206 14.12442017 C36.75598206 14.12442017 39.39598206 14.12442017 42.11598206 14.12442017 C44.31736866 10.32014524 44.31736866 10.32014524 45.11598206 6.12442017 C42.47598206 6.12442017 39.83598206 6.12442017 37.11598206 6.12442017 Z M56.11598206 6.12442017 C57.11598206 8.12442017 57.11598206 8.12442017 57.11598206 8.12442017 Z M168.11598206 6.12442017 C166.63098206 10.08442017 166.63098206 10.08442017 165.11598206 14.12442017 C167.75598206 14.12442017 170.39598206 14.12442017 173.11598206 14.12442017 C175.31736866 10.32014524 175.31736866 10.32014524 176.11598206 6.12442017 C173.47598206 6.12442017 170.83598206 6.12442017 168.11598206 6.12442017 Z M155.11598206 8.12442017 C156.11598206 10.12442017 156.11598206 10.12442017 156.11598206 10.12442017 Z M154.11598206 10.12442017 C155.11598206 12.12442017 155.11598206 12.12442017 155.11598206 12.12442017 Z M23.11598206 11.12442017 C24.11598206 13.12442017 24.11598206 13.12442017 24.11598206 13.12442017 Z M54.11598206 11.12442017 C53.78598206 12.44442017 53.45598206 13.76442017 53.11598206 15.12442017 C53.77598206 13.80442017 54.43598206 12.48442017 55.11598206 11.12442017 C54.78598206 11.12442017 54.45598206 11.12442017 54.11598206 11.12442017 Z M215.11598206 11.12442017 C214.78598206 12.44442017 214.45598206 13.76442017 214.11598206 15.12442017 C224.01598206 14.62942017 224.01598206 14.62942017 234.11598206 14.12442017 C234.11598206 13.79442017 234.11598206 13.46442017 234.11598206 13.12442017 C228.17598206 13.12442017 222.23598206 13.12442017 216.11598206 13.12442017 C215.78598206 12.46442017 215.45598206 11.80442017 215.11598206 11.12442017 Z M22.11598206 13.12442017 C23.11598206 15.12442017 23.11598206 15.12442017 23.11598206 15.12442017 Z M21.11598206 15.12442017 C22.11598206 17.12442017 22.11598206 17.12442017 22.11598206 17.12442017 Z M20.11598206 17.12442017 C21.11598206 19.12442017 21.11598206 19.12442017 21.11598206 19.12442017 Z M51.11598206 17.12442017 C52.11598206 19.12442017 52.11598206 19.12442017 52.11598206 19.12442017 Z " fill="#02A8F4" transform="translate(59.88401794433594,103.87557983398438)"/>
<path d="M0 0 C14.66781194 2.64750962 26.15492306 8.36967039 37.75 17.625 C38.54277344 18.23472656 39.33554687 18.84445313 40.15234375 19.47265625 C53.2690606 30.12212118 62.00480795 49.0197568 63.75 65.625 C64.27693184 74.48669931 64.69816392 83.15592987 61.75 91.625 C60.75 92.625 60.75 92.625 57.5625 92.8125 C53.88242468 92.63151269 51.16102853 91.95613308 47.75 90.625 C46.72982077 86.73897376 46.7388474 83.21469727 46.86743164 79.24291992 C47.34388379 62.71650475 44.0937256 49.7108542 33.75 36.625 C31.51275023 34.39591538 29.26194936 32.54904632 26.75 30.625 C26.75 29.965 26.75 29.305 26.75 28.625 C26.20601563 28.36460938 25.66203125 28.10421875 25.1015625 27.8359375 C23.41586052 26.96788498 21.76740583 26.02600115 20.1484375 25.0390625 C12.75197961 20.66234711 6.07663675 18.42949869 -2.33251953 16.86767578 C-8.08025074 15.79474926 -8.08025074 15.79474926 -10.25 13.625 C-10.5859375 11.3828125 -10.5859375 11.3828125 -10.625 8.75 C-10.65335938 7.88632813 -10.68171875 7.02265625 -10.7109375 6.1328125 C-9.556953 -0.14564555 -5.68043798 -0.91151214 0 0 Z " fill="#FE08BF" transform="translate(244.25,7.375)"/>
<path d="M0 0 C10.9954866 2.38353774 21.68534842 7.17197223 29 16 C29 16.66 29 17.32 29 18 C29.99 18.33 30.98 18.66 32 19 C39.27234341 30.18932837 43.85109072 42.96299724 41.25 56.4375 C40 60 40 60 38 61 C35.6875 60.984375 35.6875 60.984375 33 60.75 C32.113125 60.68296875 31.22625 60.6159375 30.3125 60.546875 C28 60 28 60 26 57 C26 54.86324158 26.00443563 52.72632158 26.0390625 50.58984375 C25.8870911 40.51413983 22.90920477 32.49915213 16.1796875 24.9609375 C10.3709151 19.43437267 3.55889474 16.21513105 -4.4375 15.4375 C-8 15 -8 15 -9.69921875 13.75390625 C-11.34429793 11.53576646 -11.40240297 10.24029727 -11.375 7.5 C-11.38273438 6.7265625 -11.39046875 5.953125 -11.3984375 5.15625 C-10.27128139 -0.94365365 -5.15822085 -0.71036531 0 0 Z " fill="#FE08BF" transform="translate(241,35)"/>
<path d="M0 0 C6.92928479 0.07930512 12.09731939 2.2301768 17.3125 6.75 C23.07810181 13.50399069 26.40325021 18.26639464 26.5 27.3125 C25.26470588 31.54779412 25.26470588 31.54779412 23.5 33.3125 C16.04135338 33.67340226 16.04135338 33.67340226 12.5 31.3125 C11.9453125 29.140625 11.9453125 29.140625 11.625 26.5625 C10.70030245 21.51670944 9.55664281 18.70683378 5.5 15.3125 C2.63006495 14.27260913 -0.19172324 13.51285517 -3.171875 12.85546875 C-5.5 12.3125 -5.5 12.3125 -6.5 11.3125 C-6.43621032 9.64237017 -6.29971885 7.97469015 -6.125 6.3125 C-6.03476563 5.405 -5.94453125 4.4975 -5.8515625 3.5625 C-5.24121344 -0.34373398 -3.62871093 0.10639739 0 0 Z " fill="#FE08BF" transform="translate(232.5,58.6875)"/>
<path d="M0 0 C2.49531416 1.87148562 3.50011855 3.43777265 4.75 6.3125 C5.58389634 12.87943369 5.58389634 12.87943369 3.6953125 16.125 C0.84016737 19.63902477 -0.97611331 21.13765281 -5.4375 21.75 C-9.83868267 21.24494625 -11.76265805 20.22619843 -14.92578125 17.2265625 C-16.94755746 14.30423111 -16.97207776 11.90328381 -16.6796875 8.4296875 C-15.91481451 4.66094966 -14.57111685 2.30333764 -11.5 0 C-7.60329061 -1.1906612 -3.89670939 -1.1906612 0 0 Z " fill="#FE08C0" transform="translate(233.25,78.6875)"/>
</svg>
